<?xml version="1.0" standalone="no"?>
<!DOCTYPE svg PUBLIC "-//W3C//DTD SVG 20010904//EN"
 "http://www.w3.org/TR/2001/REC-SVG-20010904/DTD/svg10.dtd">
<svg version="1.0" xmlns="http://www.w3.org/2000/svg"
 width="225.000000pt" height="225.000000pt" viewBox="0 0 225.000000 225.000000"
 preserveAspectRatio="xMidYMid meet">
<metadata>
Created by potrace 1.14, written by Peter Selinger 2001-2017
</metadata>
<g transform="translate(0.000000,225.000000) scale(0.100000,-0.100000)"
fill="#000000" stroke="none">
<path d="M195 2231 c-37 -22 -61 -49 -69 -78 -4 -12 -24 -30 -44 -40 -20 -10
-47 -33 -59 -52 -69 -103 39 -222 149 -165 l31 16 78 -78 c44 -43 79 -82 79
-86 0 -3 -16 -34 -36 -67 -45 -75 -88 -180 -104 -254 -11 -47 -17 -58 -43 -68
-47 -20 -87 -58 -87 -84 0 -24 44 -69 79 -80 15 -4 21 -19 26 -68 22 -200 81
-343 221 -535 17 -23 17 -24 -98 -139 l-115 -115 -31 16 c-81 42 -172 -12
-172 -102 0 -40 38 -93 82 -115 20 -10 40 -28 44 -40 14 -48 80 -97 129 -97
57 0 115 58 115 115 0 14 -7 40 -16 57 l-16 31 120 120 120 120 58 -35 c33
-20 78 -45 101 -57 31 -15 43 -28 48 -51 4 -17 25 -58 48 -91 126 -190 397
-214 552 -48 25 27 60 79 76 114 24 54 35 67 71 84 24 11 66 33 93 50 l51 30
118 -118 118 -118 -16 -31 c-42 -81 12 -172 102 -172 40 0 93 38 115 82 10 20
28 40 40 44 48 14 97 80 97 129 0 57 -58 115 -115 115 -14 0 -40 -7 -57 -16
l-31 -16 -115 115 -114 114 51 64 c99 123 177 318 190 479 5 64 9 76 29 86 38
19 72 56 72 79 0 24 -30 55 -76 79 -26 13 -34 25 -44 68 -18 75 -75 211 -116
276 l-36 55 80 80 79 79 31 -16 c101 -52 210 52 158 152 -18 34 -54 68 -83 76
-12 4 -30 24 -40 44 -10 20 -33 47 -52 59 -103 69 -222 -39 -165 -149 l16 -31
-75 -75 -75 -75 -60 47 c-227 174 -532 237 -806 167 -104 -27 -245 -95 -329
-159 -37 -29 -71 -52 -75 -52 -4 0 -40 33 -81 74 l-73 73 16 31 c20 40 20 77
0 112 -35 58 -104 76 -159 41z m120 -36 c32 -31 33 -82 4 -120 l-22 -27 165
-166 166 -167 -42 -52 -41 -53 -170 169 -170 169 -30 -19 c-69 -43 -145 -7
-145 68 1 54 47 103 97 103 17 0 23 6 23 20 0 28 26 77 47 89 34 20 92 13 118
-14z m1735 12 c27 -20 50 -60 50 -84 0 -17 6 -23 20 -23 29 0 78 -27 90 -49 5
-11 10 -36 10 -56 0 -74 -84 -111 -145 -64 l-27 22 -166 -166 -167 -167 -44
51 -44 51 161 161 160 162 -19 30 c-43 69 -7 145 68 145 21 0 45 -6 53 -13z
m-705 -128 c110 -28 200 -67 283 -123 113 -76 112 -72 39 -144 l-62 -62 -50
36 c-70 50 -127 77 -225 109 -72 23 -102 27 -200 27 -97 0 -128 -4 -200 -27
-90 -29 -164 -67 -235 -120 l-43 -33 -66 67 -66 67 62 48 c111 84 273 151 428
176 82 13 244 3 335 -21z m-10 -223 c158 -51 292 -155 373 -291 23 -38 40 -70
39 -72 -2 -1 -24 4 -49 12 -131 39 -256 50 -573 50 -278 0 -323 -3 -432 -23
-67 -12 -134 -27 -148 -32 -31 -12 -31 -11 0 51 56 109 220 249 345 294 144
52 305 56 445 11z m597 -241 c37 -76 84 -212 77 -219 -2 -2 -49 6 -104 19
l-100 22 -21 56 c-12 30 -28 65 -36 76 -14 20 -12 25 51 86 78 75 77 75 133
-40z m-1474 32 l63 -63 -36 -75 -35 -74 -78 -16 c-42 -8 -87 -19 -99 -23 -17
-5 -23 -3 -23 7 0 59 112 307 139 307 4 0 35 -28 69 -63z m1207 -237 c295 -34
479 -92 459 -143 -8 -23 -74 -53 -164 -76 -47 -12 -93 -25 -102 -27 -16 -5
-18 2 -18 54 0 71 -12 86 -98 112 -111 35 -250 45 -612 45 -364 0 -500 -10
-616 -46 -77 -24 -94 -45 -94 -117 l0 -54 -32 7 c-74 16 -205 57 -226 71 -62
40 -24 79 112 118 105 30 237 51 416 66 69 6 143 12 165 14 22 2 173 3 335 1
219 -3 341 -9 475 -25z m-30 -88 c55 -11 118 -27 139 -36 l39 -16 -6 -98 c-6
-98 -32 -203 -69 -277 -37 -74 -126 -182 -190 -230 -249 -189 -582 -191 -830
-5 -61 45 -156 157 -188 221 -36 71 -68 184 -75 266 -10 114 -5 128 52 147 42
14 175 37 283 50 19 2 195 2 390 1 304 -3 369 -6 455 -23z m389 -213 c-4 -30
-9 -48 -11 -41 -6 15 -149 17 -158 2 -3 -5 -11 -10 -16 -10 -6 0 -7 6 -2 13 4
6 6 20 5 29 -2 13 10 19 54 28 31 7 73 18 93 25 20 7 37 11 39 10 2 -2 0 -27
-4 -56z m-1686 26 c71 -16 83 -21 79 -37 -3 -10 -1 -18 4 -18 5 0 9 -7 9 -16
0 -14 -1 -14 -16 0 -11 12 -36 16 -90 16 -63 0 -74 -3 -75 -17 -1 -20 -18 51
-18 80 -1 10 5 17 12 15 6 -2 49 -12 95 -23z m332 -470 l44 -45 -208 -209
-209 -209 22 -27 c47 -61 10 -145 -64 -145 -20 0 -45 5 -56 10 -22 12 -49 61
-49 90 0 14 -6 20 -23 20 -50 0 -96 49 -97 103 0 76 76 111 146 68 l31 -19
204 204 c112 112 206 204 209 204 3 0 26 -20 50 -45z m1176 -166 l202 -202 27
22 c61 47 145 10 145 -64 0 -20 -5 -45 -10 -56 -12 -22 -61 -49 -90 -49 -14 0
-20 -6 -20 -23 0 -50 -49 -96 -103 -97 -75 0 -111 76 -68 145 l19 30 -206 207
c-113 114 -204 209 -202 210 3 2 24 20 48 41 23 20 45 37 49 37 4 0 99 -91
209 -201z m-946 33 c25 -8 46 -16 48 -17 2 -2 -2 -21 -8 -44 l-11 -41 -28 15
c-37 19 -81 71 -81 97 0 15 4 18 18 13 9 -4 37 -14 62 -23z m526 -21 c-14 -27
-79 -81 -98 -81 -10 0 -31 70 -23 78 14 14 120 48 128 41 5 -4 2 -21 -7 -38z
m-333 -20 c14 -1 17 -10 17 -52 l0 -50 -47 6 c-27 4 -62 11 -80 16 -30 10 -31
12 -21 42 5 18 11 37 13 43 2 8 19 9 52 3 26 -4 56 -8 66 -8z m-190 -76 c15
-9 16 -15 5 -47 -6 -21 -15 -38 -19 -38 -13 0 -61 68 -75 107 -22 62 -16 68
29 27 24 -22 51 -43 60 -49z m371 77 c2 -4 7 -23 11 -43 l7 -37 -64 -11 c-91
-16 -88 -17 -88 38 0 49 1 50 33 54 59 7 96 7 101 -1z m167 -65 c-12 -34 -63
-97 -79 -97 -9 0 -32 52 -32 71 0 5 18 18 39 29 22 11 48 31 58 44 17 22 18
23 21 5 2 -11 -1 -34 -7 -52z m-448 -36 c23 -6 59 -13 80 -16 l37 -6 0 -60 0
-61 -42 7 c-51 9 -118 33 -136 50 -11 10 -11 20 -1 54 7 22 14 41 16 41 2 0
23 -4 46 -9z m317 -16 c26 -69 26 -71 -32 -93 -29 -11 -72 -23 -95 -27 l-43
-7 0 61 0 60 48 6 c37 6 84 16 110 24 1 1 7 -10 12 -24z m-357 -111 c57 -27
71 -29 177 -29 110 0 118 2 182 33 42 20 82 50 109 80 l41 47 -6 -35 c-13 -63
-65 -158 -108 -195 -73 -62 -122 -80 -218 -80 -73 0 -93 4 -142 28 -71 35
-140 110 -167 183 -34 89 -28 100 24 45 28 -30 69 -60 108 -77z"/>
<path d="M745 1249 c-17 -5 -49 -24 -72 -44 -138 -118 -97 -339 74 -401 108
-38 230 14 286 121 25 48 27 143 5 195 -20 47 -73 98 -123 121 -42 20 -119 23
-170 8z"/>
<path d="M1352 1247 c-53 -20 -103 -66 -128 -121 -52 -112 -17 -229 91 -299
44 -28 58 -32 120 -32 62 0 76 4 120 32 109 70 144 190 89 301 -54 108 -179
159 -292 119z"/>
<path d="M1073 815 c-44 -31 -37 -111 13 -134 36 -16 58 -14 88 10 34 27 37
88 4 119 -26 24 -75 26 -105 5z"/>
</g>
</svg>
